<svg xmlns="http://www.w3.org/2000/svg" width="1200" height="650" viewBox="0 0 1200 650">
<defs><filter id="shadow" x="-20%" y="-20%" width="140%" height="150%"><feDropShadow dx="10" dy="12" stdDeviation="10" flood-color="#251a18" flood-opacity=".24"/></filter><filter id="grain"><feTurbulence baseFrequency=".72" numOctaves="2" seed="13" type="fractalNoise"/><feColorMatrix type="saturate" values="0"/><feComponentTransfer><feFuncA type="table" tableValues="0 .055"/></feComponentTransfer></filter></defs>
<style>.title{font-family:Georgia,serif;font-weight:700;font-size:46px;letter-spacing:1px;fill:#2e3a34}.craft{font-family:Arial,sans-serif;font-weight:700;font-size:19px;letter-spacing:5px;fill:#8b4034}.small{font-family:Arial,sans-serif;font-weight:700;font-size:17px;letter-spacing:2px;fill:#2e3a34}.tiny{font-family:Arial,sans-serif;font-size:14px;letter-spacing:2.3px;fill:#2e3a34}.big{font-family:Georgia,serif;font-weight:700;font-size:66px;fill:#2e3a34}.room{font-family:Georgia,serif;font-weight:700;font-size:116px;fill:#8b4034}</style>
<g filter="url(#shadow)"><rect x="20" y="20" width="1160" height="600" rx="34" fill="#c9d0b6" stroke="#2e3a34" stroke-width="3"/><rect x="38" y="38" width="1124" height="564" rx="26" fill="none" stroke="#2e3a34" stroke-width="1.5" opacity=".7"/>
<text x="76" y="88" class="tiny">THE WRITING ROOM BUREAU • COURSE 04 • HOTEL FOLIO / KEY TAG</text>
<text x="76" y="172" class="title">THE ALPINE HOTEL LEDGER</text><text x="76" y="215" class="craft">PLOTTING</text>
<line x1="76" y1="250" x2="735" y2="250" stroke="#2e3a34" stroke-width="1.5"/>
<text x="76" y="315" class="small">ARRIVAL: DESIRE</text><text x="76" y="365" class="small">DEPARTURE: CONSEQUENCE</text>
<text x="76" y="460" class="tiny">SERIAL AH-121498</text><text x="76" y="505" class="tiny">ISSUED BY WRB / AUTUMN TERM</text>
<rect x="76" y="535" width="470" height="42" rx="3" fill="#2e3a34"/><text x="311" y="562" text-anchor="middle" style="font:700 15px Arial;letter-spacing:3px;fill:#f0ead7">ROOM 04 • PLOT IN MOTION</text>
<rect x="810" y="122" width="260" height="310" rx="24" fill="#8b4034" opacity=".10"/><text x="940" y="185" text-anchor="middle" class="tiny">ALPINE HOTEL</text><text x="940" y="278" text-anchor="middle" class="room">04</text><text x="940" y="335" text-anchor="middle" class="small">LEDGER</text><path d="M850 390h180" stroke="#2e3a34"/><path d="M866 410l74-54 74 54" fill="none" stroke="#2e3a34" stroke-width="4"/><rect x="20" y="20" width="1160" height="600" rx="10" filter="url(#grain)" opacity=".55"/></g></svg>